<mxfile host="app.diagrams.net" modified="2023-10-25T00:39:23.482Z" agent="Mozilla/5.0 (Macintosh; Intel Mac OS X 10_15_7) AppleWebKit/537.36 (KHTML, like Gecko) Chrome/115.0.0.0 Safari/537.36" version="22.0.7" etag="MtEUFhrFJ2862Rm7swED" type="github">
  <diagram name="Page-1" id="hh2VOnVeFMW3-zFBLwwh">
    <mxGraphModel>
      <root>
        <mxCell id="0" />
        <mxCell id="1" parent="0" />
      </root>
    </mxGraphModel>
  </diagram>
</mxfile>
